<?xml version="1.0" encoding="UTF-8"?> <!-- Generator: Adobe Illustrator 17.1.0, SVG Export Plug-In . SVG Version: 6.00 Build 0) --> <svg xmlns="http://www.w3.org/2000/svg" xmlns:xlink="http://www.w3.org/1999/xlink" id="Layer_1" x="0px" y="0px" viewBox="0 0 6236.2 1071" xml:space="preserve"> <g id="STARS_10_" transform="translate(-194.732 -219.136)"> <path id="Path_3_10_" fill="#1F1E1D" d="M1466.4,1131.2l-8.9,53.5c0,4.5,0,8.9,4.5,13.4s8.9,4.5,13.4,0l44.5-26.7l44.5,26.7 c4.5,4.5,8.9,4.5,13.4,0s4.5-8.9,4.5-13.4l-8.9-53.5l35.6-40.1c4.5-4.5,4.5-8.9,4.5-13.4s-4.5-8.9-13.4-8.9l-49-8.9l-22.3-49 c-4.5-8.9-13.4-8.9-17.8-8.9c-4.5,0-4.5,4.5-8.9,8.9l-22.3,49l-49,8.9c-4.5,0-8.9,4.5-13.4,8.9c0,4.5,0,8.9,4.5,13.4L1466.4,1131.2 z"></path> <path id="Path_4_10_" fill="#1F1E1D" d="M1702.5,1131.2l-8.9,53.5c0,4.5,0,8.9,4.5,13.4s8.9,4.5,13.4,0l44.5-26.7l44.5,26.7 c4.5,4.5,8.9,4.5,13.4,0c4.5-4.5,4.5-8.9,4.5-13.4l-8.9-53.5l35.6-40.1c4.5-4.5,4.5-8.9,4.5-13.4s-4.5-8.9-13.4-8.9l-49-8.9 l-22.3-49c-4.5-8.9-13.4-8.9-17.8-8.9c-4.5,0-4.5,4.5-8.9,8.9l-22.3,49l-49,8.9c-4.5,0-8.9,4.5-13.4,8.9c0,4.5,0,8.9,4.5,13.4 L1702.5,1131.2z"></path> <path id="Path_5_10_" fill="#1F1E1D" d="M1956.4,1131.2l-8.9,53.5c0,4.5,0,8.9,4.5,13.4s8.9,4.5,13.4,0l44.5-26.7l44.5,26.7 c4.5,4.5,8.9,4.5,13.4,0c4.5-4.5,4.5-8.9,4.5-13.4l-8.9-53.5l35.6-40.1c4.5-4.5,4.5-8.9,4.5-13.4s-4.5-8.9-13.4-8.9l-49-8.9 l-22.3-49c-4.5-8.9-13.4-8.9-17.8-8.9c-4.5,0-4.5,4.5-8.9,8.9l-22.3,49l-49,8.9c-4.5,0-8.9,4.5-13.4,8.9c0,4.5,0,8.9,4.5,13.4 L1956.4,1131.2z"></path> <path id="Path_6_10_" fill="#1F1E1D" d="M2192.4,1131.2l-8.9,53.5c0,4.5,0,8.9,4.5,13.4c4.5,4.5,8.9,4.5,13.4,0l44.5-26.7 l44.5,26.7c4.5,4.5,8.9,4.5,13.4,0c4.5-4.5,4.5-8.9,4.5-13.4l-8.9-53.5l35.6-40.1c4.5-4.5,4.5-8.9,4.5-13.4s-4.5-8.9-13.4-8.9 l-49-8.9l-22.3-49c-4.5-8.9-13.4-8.9-17.8-8.9c-4.5,0-4.5,4.5-8.9,8.9l-22.3,49l-49,8.9c-4.5,0-8.9,4.5-13.4,8.9 c0,4.5,0,8.9,4.5,13.4L2192.4,1131.2z"></path> </g> <path fill="#1F1E1D" d="M1571.5,314.3l218.3-227.2c8.9-8.9,4.5-26.7-13.4-26.7h-120.3c-4.5,0-8.9,0-13.4,4.5l-218.3,236.1 c-8.9,8.9-26.7,4.5-26.7-13.4V78.2c0-8.9-8.9-17.8-17.8-17.8h-102.5c-8.9,0-17.8,8.9-17.8,17.8v588c0,8.9,8.9,17.8,17.8,17.8H1380 c8.9,0,17.8-8.9,17.8-17.8V501.4c0-4.5,0-8.9,4.5-13.4l53.5-53.5c8.9-8.9,17.8-4.5,26.7,0L1665.1,684h4.5l53.5-129.2 c4.5-4.5,0-13.4,0-17.8l-155.9-200.4C1562.6,332.1,1562.6,323.2,1571.5,314.3z"></path> <path fill="#1F1E1D" d="M2881.1,60.4h-120.3c-4.5,0-8.9,4.5-13.4,8.9l-142.5,231.6c-4.5,8.9-22.3,8.9-26.7,0L2435.7,69.3 c-4.5-4.5-8.9-8.9-13.4-8.9H2302c-8.9,0-17.8,8.9-17.8,17.8v334.1v253.9c0,8.9,8.9,17.8,17.8,17.8h98l0,0c8.9,0,17.8-8.9,17.8-17.8 V336.6c0-17.8,22.3-22.3,31.2-8.9l142.5,218.3h4.5l133.6-222.7c8.9-13.4,31.2-8.9,31.2,8.9v334.1c0,8.9,8.9,17.8,17.8,17.8h4.5 c4.5,0,13.4-4.5,13.4-8.9l98-231.6V439V82.7C2898.9,69.3,2890,60.4,2881.1,60.4z"></path> <path fill="#1F1E1D" d="M1981.3,55.9c-4.5,0-13.4,4.5-13.4,13.4l-204.9,476.6l-49,115.8c-4.5,8.9,4.5,22.3,13.4,22.3h106.9 c4.5,0,13.4-4.5,13.4-8.9l111.4-267.3l0,0l57.9-147c4.5-13.4,26.7-13.4,31.2,0l62.4,155.9c4.5,4.5,0,13.4-4.5,17.8l-66.8,84.6 c-8.9,8.9,0,26.7,13.4,26.7h98c4.5,0,13.4,4.5,13.4,8.9l49,120.3c4.5,4.5,8.9,8.9,13.4,8.9l0,0c8.9,0,17.8-8.9,17.8-17.8V416.8v-4.5 l-142.5-343c-4.5-8.9-8.9-13.4-13.4-13.4H1981.3z"></path> <path fill="#1F1E1D" d="M3112.8,60.4c-4.5,0-13.4,4.5-13.4,8.9l-204.9,476.6l-49,115.8c-4.5,8.9,4.5,22.3,13.4,22.3h102.5 c4.5,0,13.4-4.5,13.4-8.9L3086,407.8l0,0l57.9-147c4.5-13.4,26.7-13.4,31.2,0l62.4,155.9c4.5,4.5,0,13.4-4.5,17.8l-62.4,84.6 c-8.9,8.9,0,26.7,13.4,26.7h98c4.5,0,13.4,4.5,13.4,8.9l49,120.3c4.5,4.5,8.9,8.9,13.4,8.9h17.8h84.6c13.4,0,17.8-13.4,13.4-22.3 L3233,69.3c-4.5-4.5-8.9-8.9-13.4-8.9C3219.7,60.4,3112.8,60.4,3112.8,60.4z"></path> <path fill="#1F1E1D" d="M4765.4,47c-191.5,0-320.7,151.5-320.7,325.2l0,0c0-173.7-129.2-320.7-320.7-320.7s-320.7,151.5-320.7,325.2 l0,0c0,173.7,129.2,320.7,320.7,320.7c191.5,0,320.7-151.5,320.7-325.2l0,0c0,173.7,129.2,320.7,320.7,320.7 c191.5,0,320.7-151.5,320.7-325.2l0,0C5086.1,198.5,4956.9,47,4765.4,47z M4373.4,372.2c0,142.5-102.5,258.4-245,258.4 s-249.4-115.8-249.4-258.4l0,0c0-142.5,102.5-258.4,245-258.4C4266.5,113.9,4373.4,229.7,4373.4,372.2L4373.4,372.2z M5010.3,372.2 c0,142.5-102.5,258.4-245,258.4s-249.4-115.8-249.4-258.4l0,0c0-142.5,102.5-258.4,245-258.4 C4907.9,113.9,5010.3,229.7,5010.3,372.2L5010.3,372.2z"></path> <path fill="#1F1E1D" d="M5402.3,381.1L5193,64.9c-4.5-4.5-13.4-8.9-17.8-8.9h-44.5c-8.9,0-17.8,8.9-17.8,17.8v596.9 c0,8.9,8.9,17.8,17.8,17.8h35.6c8.9,0,17.8-8.9,17.8-17.8v-441c0-17.8,22.3-22.3,31.2-8.9l200.4,294h4.5l200.4-294 c8.9-13.4,31.2-8.9,31.2,8.9v441c0,8.9,8.9,17.8,17.8,17.8h40.1c8.9,0,17.8-8.9,17.8-17.8V73.8c0-8.9-8.9-17.8-17.8-17.8h-49 c-4.5,0-8.9,4.5-13.4,8.9L5438,381.1C5420.2,390,5406.8,390,5402.3,381.1z"></path> <path fill="#1F1E1D" d="M5994.8,336.6c-138.1-31.2-169.3-62.4-169.3-120.3l0,0c0-57.9,53.5-102.5,133.6-102.5 c57.9,0,115.8,17.8,169.3,57.9c8.9,4.5,17.8,4.5,22.3-4.5l22.3-26.7c4.5-8.9,4.5-17.8-4.5-22.3c-57.9-44.5-120.3-66.8-209.4-66.8 c-120.3,0-204.9,71.3-204.9,169.3l0,0c0,102.5,66.8,151.5,209.4,182.6c133.6,26.7,164.8,62.4,164.8,120.3l0,0 c0,62.4-53.5,106.9-138.1,106.9c-80.2,0-142.5-26.7-204.9-80.2c-8.9-4.5-17.8-4.5-22.3,0l-22.3,26.7c-4.5,8.9-4.5,17.8,0,22.3 c71.3,62.4,151.5,89.1,245,89.1c124.7,0,213.8-71.3,213.8-178.2l0,0C6199.7,421.2,6132.9,367.8,5994.8,336.6z"></path> <path fill="#1F1E1D" d="M3803.2,247.5L3803.2,247.5c0-49-17.8-93.5-49-124.7c-40.1-40.1-102.5-62.4-178.2-62.4h-245 c-8.9,0-17.8,8.9-13.4,22.3l13.4,31.2c4.5,4.5,8.9,8.9,13.4,8.9h227.2c102.5,0,160.4,44.5,160.4,124.7l0,0 c0,80.2-66.8,129.2-160.4,129.2h-111.4c-13.4,0-17.8,13.4-13.4,22.3l13.4,31.2c4.5,4.5,8.9,8.9,13.4,8.9h75.7 c4.5,0,8.9,4.5,13.4,4.5l173.7,231.6c4.5,4.5,8.9,4.5,13.4,4.5h44.5c13.4,0,22.3-13.4,13.4-26.7l-160.4-209.4 c-8.9-8.9,0-22.3,8.9-26.7C3740.8,398.9,3803.2,341,3803.2,247.5z"></path> <g> <path fill="#1F1E1D" d="M2996.9,922.6c0,35.6-26.7,57.9-66.8,57.9H2841V780h89.1c35.6,0,62.4,17.8,62.4,53.5 c0,22.3-8.9,31.2-26.7,40.1C2988,882.5,2996.9,900.3,2996.9,922.6z M2925.7,820.1h-40.1v40.1h44.5c17.8,0,22.3-8.9,22.3-22.3 C2947.9,824.6,2943.5,820.1,2925.7,820.1z M2956.8,922.6c0-13.4-4.5-22.3-26.7-22.3h-44.5v44.5h49 C2952.4,944.8,2956.8,935.9,2956.8,922.6z"></path> <path fill="#1F1E1D" d="M3206.3,780v120.3c0,57.9-35.6,84.6-84.6,84.6c-49,0-84.6-26.7-84.6-84.6V780h44.5v120.3 c0,35.6,17.8,49,40.1,49s40.1-13.4,40.1-49V784.5h44.5V780z"></path> <path fill="#1F1E1D" d="M3411.2,922.6c0,49-44.5,62.4-75.7,62.4c-57.9,0-84.6-31.2-89.1-66.8h40.1c4.5,17.8,17.8,31.2,44.5,31.2 c22.3,0,35.6-8.9,35.6-22.3c0-13.4-13.4-17.8-49-26.7c-35.6-8.9-66.8-17.8-66.8-57.9c0-40.1,35.6-62.4,75.7-62.4 c53.5,0,75.7,31.2,80.2,62.4h-40.1c-4.5-13.4-13.4-22.3-40.1-22.3c-22.3,0-35.6,8.9-35.6,22.3c0,13.4,8.9,13.4,35.6,22.3 C3384.5,873.6,3411.2,882.5,3411.2,922.6z"></path> <path fill="#1F1E1D" d="M3451.3,780h40.1v200.4h-40.1V780z"></path> <path fill="#1F1E1D" d="M3714.1,780v200.4h-49L3576,837.9l4.5,57.9v84.6h-40.1V780h49l89.1,142.5l-4.5-57.9V780H3714.1z"></path> <path fill="#1F1E1D" d="M3807.6,820.1v40.1h84.6v40.1h-84.6v44.5h93.5v40.1h-133.6V784.5h133.6v40.1h-93.5V820.1z"></path> <path fill="#1F1E1D" d="M4097.2,922.6c0,49-44.5,62.4-75.7,62.4c-57.9,0-84.6-31.2-89.1-66.8h40.1c4.5,17.8,17.8,31.2,44.5,31.2 c22.3,0,35.6-8.9,35.6-22.3c0-13.4-13.4-17.8-49-26.7c-35.6-8.9-66.8-17.8-66.8-57.9c0-40.1,35.6-62.4,75.7-62.4 c53.5,0,75.7,31.2,80.2,62.4h-40.1c-4.5-13.4-13.4-22.3-40.1-22.3c-22.3,0-35.6,8.9-35.6,22.3c0,13.4,8.9,13.4,35.6,22.3 C4070.5,873.6,4097.2,882.5,4097.2,922.6z"></path> <path fill="#1F1E1D" d="M4293.2,922.6c0,49-44.5,62.4-75.7,62.4c-57.9,0-84.6-31.2-89.1-66.8h40.1c4.5,17.8,17.8,31.2,44.5,31.2 c22.3,0,35.6-8.9,35.6-22.3c0-13.4-13.4-17.8-49-26.7c-35.6-8.9-66.8-17.8-66.8-57.9c0-40.1,35.6-62.4,75.7-62.4 c53.5,0,75.7,31.2,80.2,62.4h-40.1c-4.5-13.4-13.4-22.3-40.1-22.3c-22.3,0-35.6,8.9-35.6,22.3c0,13.4,8.9,13.4,35.6,22.3 C4266.5,873.6,4293.2,882.5,4293.2,922.6z"></path> <path fill="#1F1E1D" d="M4600.5,780v200.4h-40.1v-80.2h-89.1v84.6h-40.1V784.5h40.1v80.2h89.1v-80.2h40.1V780z"></path> <path fill="#1F1E1D" d="M4854.4,882.5c0,57.9-44.5,102.5-106.9,102.5c-57.9,0-102.5-44.5-102.5-102.5 c0-57.9,44.5-102.5,102.5-102.5C4809.9,780,4854.4,824.6,4854.4,882.5z M4685.2,882.5c0,35.6,26.7,66.8,62.4,66.8 c35.6,0,62.4-26.7,62.4-66.8c0-35.6-26.7-66.8-62.4-66.8C4711.9,815.7,4685.2,842.4,4685.2,882.5z"></path> <path fill="#1F1E1D" d="M5041.5,820.1h-57.9v160.4h-40.1V820.1h-57.9V780h155.9V820.1L5041.5,820.1z"></path> <path fill="#1F1E1D" d="M5121.7,820.1v40.1h84.6v40.1h-84.6v44.5h93.5v40.1h-133.6V784.5h133.6v40.1h-93.5V820.1z"></path> <path fill="#1F1E1D" d="M5384.5,944.8v40.1h-129.2V784.5h40.1v160.4H5384.5z"></path> <path fill="#1F1E1D" d="M5549.3,980.5l-13.4-13.4c-13.4,8.9-35.6,17.8-57.9,17.8c-40.1,0-71.3-17.8-71.3-57.9 c0-26.7,13.4-40.1,40.1-53.5c-13.4-17.8-17.8-31.2-17.8-44.5c0-35.6,31.2-53.5,57.9-53.5c31.2,0,57.9,17.8,57.9,53.5 c0,26.7-17.8,40.1-40.1,53.5c8.9,8.9,17.8,17.8,26.7,31.2c4.5-8.9,4.5-13.4,8.9-22.3h40.1c0,17.8-8.9,40.1-17.8,53.5 c13.4,13.4,22.3,22.3,35.6,40.1h-49V980.5z M5513.7,940.4c-13.4-13.4-26.7-26.7-35.6-40.1c-17.8,8.9-22.3,13.4-22.3,22.3 c0,13.4,13.4,22.3,31.2,22.3C5495.9,949.3,5504.8,944.8,5513.7,940.4z M5473.6,833.5c0,4.5,4.5,13.4,8.9,22.3 c17.8-8.9,22.3-13.4,22.3-26.7c0-8.9-4.5-13.4-17.8-13.4C5482.5,815.7,5473.6,820.1,5473.6,833.5z"></path> <path fill="#1F1E1D" d="M5798.8,922.6c0,49-44.5,62.4-75.7,62.4c-57.9,0-84.6-31.2-89.1-66.8h40.1c4.5,17.8,17.8,31.2,44.5,31.2 c22.3,0,35.6-8.9,35.6-22.3c0-13.4-13.4-17.8-49-26.7c-35.6-8.9-66.8-17.8-66.8-57.9c0-40.1,35.6-62.4,75.7-62.4 c53.5,0,75.7,31.2,80.2,62.4h-40.1c-4.5-13.4-13.4-22.3-40.1-22.3c-22.3,0-35.6,8.9-35.6,22.3c0,13.4,8.9,13.4,35.6,22.3 C5772.1,873.6,5798.8,882.5,5798.8,922.6z"></path> <path fill="#1F1E1D" d="M5994.8,846.8c0,40.1-26.7,66.8-71.3,66.8H5879v66.8h-40.1V780h84.6C5968,780,5994.8,806.7,5994.8,846.8z M5954.7,851.3c0-17.8-8.9-31.2-31.2-31.2h-40.1V878h40.1C5945.8,878,5954.7,869.1,5954.7,851.3z"></path> <path fill="#1F1E1D" d="M6141.8,935.9h-80.2l-17.8,49h-44.5l75.7-200.4h53.5l75.7,200.4h-44.5L6141.8,935.9z M6124,895.8 l-26.7-71.3l-26.7,71.3H6124z"></path> </g> <g> <path fill="#1F1E1D" d="M774.2,1029.5H230.7c-115.8,0-209.4-93.5-209.4-209.4V276.7c0-115.8,93.5-209.4,209.4-209.4h539 c115.8,0,209.4,93.5,209.4,209.4v539C983.5,935.9,890,1029.5,774.2,1029.5z M230.7,147.5c-71.3,0-133.6,57.9-133.6,133.6v539 c0,71.3,57.9,133.6,133.6,133.6h539c71.3,0,133.6-57.9,133.6-133.6V276.7c0-71.3-57.9-133.6-133.6-133.6h-539V147.5z"></path> </g> <path fill="#1F1E1D" d="M604.9,552.8h-80.2c-4.5,0-8.9,4.5-4.5,13.4l17.8,26.7l4.5,4.5h49c4.5,0,4.5,0,4.5,4.5l120.3,160.4l4.5,4.5 h44.5c4.5,0,8.9-8.9,4.5-13.4L653.9,597.4c-4.5-4.5,0-8.9,4.5-13.4c62.4-13.4,106.9-57.9,106.9-124.7l0,0 c0-35.6-13.4-62.4-31.2-84.6c-26.7-26.7-71.3-44.5-124.7-44.5H395.5c-4.5,0-8.9,4.5-8.9,8.9l8.9,31.2c0,4.5,4.5,4.5,8.9,4.5H449 c4.5,0,8.9,8.9,4.5,13.4L342.1,503.8c-4.5,4.5-13.4,0-13.4-4.5V343.5c0-4.5-4.5-8.9-8.9-8.9h-71.3c-4.5,0-8.9,4.5-8.9,8.9v409.8 c0,4.5,4.5,8.9,8.9,8.9h80.2c4.5,0,8.9-4.5,8.9-8.9V633v-4.5l40.1-44.5c4.5-4.5,8.9-4.5,13.4,0l124.7,173.7h4.5h93.5 c4.5,0,8.9-8.9,4.5-13.4L449,517.2c0-4.5,0-8.9,0-8.9l124.7-133.6l4.5-4.5h22.3c71.3,0,111.4,31.2,111.4,84.6l0,0 C716.3,517.2,667.3,552.8,604.9,552.8z"></path> </svg> 